<svg width="64" height="64" xmlns="http://www.w3.org/2000/svg">
 <title>viking_boat</title>
 <g>
  <title>background</title>
  <rect fill="none" id="canvas_background" height="66" width="66" y="-1" x="-1"/>
 </g>
 <g>
  <title>Layer 1</title>
  <g id="svg_1" fill-rule="evenodd" fill="none">
   <g stroke="null" id="svg_2" fill="#000000">
    <g stroke="null" id="svg_3">
     <path stroke="null" id="svg_4" d="m54.29437,48.75572c1.3075,-0.53488 2.67343,-1.21952 4.07293,-2.01923c1.19683,-0.68391 1.10903,-0.67165 1.10903,-0.67165l-0.34394,2.7515c-0.50426,4.03413 -4.2921,7.7956 -8.27565,8.21208c-0.29133,0.04873 -0.58385,0.09612 -1.06542,0.16007c-0.83272,0.11058 -1.88481,0.22214 -3.17129,0.3269c-3.71413,0.30244 -8.54739,0.48461 -14.62003,0.48461c-6.07264,0 -10.9059,-0.18217 -14.62003,-0.48461c-1.28648,-0.10476 -2.33857,-0.21632 -3.17129,-0.3269c-0.48157,-0.06395 -0.77409,-0.11134 -0.89254,-0.13432c-4.17337,-0.48142 -7.94576,-4.21564 -8.44853,-8.23783l-0.3245,-2.72154c0,0 0.72227,0.43171 1.08974,0.64169c1.39925,0.79956 2.76493,1.48409 4.07219,2.01893c0.60346,0.24689 1.19041,0.46003 1.75991,0.63687c1.05489,0.32755 2.17558,-0.26207 2.50313,-1.31695c0.32755,-1.05489 -0.26207,-2.17558 -1.31696,-2.50313c-0.45337,-0.14078 -0.93163,-0.31445 -1.43144,-0.51894c-1.1304,-0.46247 -2.3444,-1.07097 -3.6023,-1.78976c-1.10006,-0.6286 -2.17053,-1.30467 -3.16547,-1.98046c-0.34753,-0.23605 -0.66004,-0.45466 -0.93199,-0.6499c-0.15981,-0.11473 -0.26828,-0.19442 -0.31995,-0.23317c-1.41196,-1.05893 -3.40344,0.09679 -3.18453,1.84809l0.88306,7.06441c0.73169,5.85354 5.95662,11.0256 11.81049,11.69225c0.55387,0.11367 2.01353,0.3075 4.34633,0.49746c3.82632,0.31158 8.76732,0.49781 14.94468,0.49781c6.17736,0 11.11836,-0.18623 14.94468,-0.49781c2.3328,-0.18996 3.79246,-0.38379 4.50088,-0.52121c5.6716,-0.58529 10.92231,-5.79945 11.65594,-11.6685l0.88306,-7.06441c0.21891,-1.75132 -1.77261,-2.90704 -3.18457,-1.84807c-0.05166,0.03875 -0.16013,0.11844 -0.31992,0.23317c-0.27194,0.19524 -0.58444,0.41385 -0.93196,0.6499c-0.9949,0.67578 -2.06533,1.35185 -3.16537,1.98044c-1.25811,0.71893 -2.4723,1.32751 -3.60288,1.79002c-0.41637,0.17033 -0.81794,0.31934 -1.20278,0.44578c-1.04937,0.34479 -1.62055,1.47499 -1.27576,2.52437c0.34479,1.04938 1.47499,1.62055 2.52437,1.27576c0.47789,-0.15702 0.96764,-0.33875 1.46868,-0.54372z"/>
     <path stroke="null" id="svg_5" d="m24,49c0,-3.86599 -3.13401,-7 -7,-7c-3.86599,0 -7,3.13401 -7,7c0,3.86599 3.13401,7 7,7c3.86599,0 7,-3.13401 7,-7zm-10,0c0,-1.65685 1.34315,-3 3,-3c1.65685,0 3,1.34315 3,3c0,1.65685 -1.34315,3 -3,3c-1.65685,0 -3,-1.34315 -3,-3z"/>
     <path stroke="null" id="svg_6" d="m34,49c0,-3.86599 -3.13401,-7 -7,-7c-3.86599,0 -7,3.13401 -7,7c0,3.86599 3.13401,7 7,7c3.86599,0 7,-3.13401 7,-7zm-10,0c0,-1.65685 1.34315,-3 3,-3c1.65685,0 3,1.34315 3,3c0,1.65685 -1.34315,3 -3,3c-1.65685,0 -3,-1.34315 -3,-3z"/>
     <path stroke="null" id="svg_7" d="m44,49c0,-3.86599 -3.13401,-7 -7,-7c-3.86599,0 -7,3.13401 -7,7c0,3.86599 3.13401,7 7,7c3.86599,0 7,-3.13401 7,-7zm-10,0c0,-1.65685 1.34315,-3 3,-3c1.65685,0 3,1.34315 3,3c0,1.65685 -1.34315,3 -3,3c-1.65685,0 -3,-1.34315 -3,-3z"/>
     <path stroke="null" id="svg_8" d="m54,49c0,-3.86599 -3.13401,-7 -7,-7c-3.86599,0 -7,3.13401 -7,7c0,3.86599 3.13401,7 7,7c3.86599,0 7,-3.13401 7,-7zm-10,0c0,-1.65685 1.34315,-3 3,-3c1.65685,0 3,1.34315 3,3c0,1.65685 -1.34315,3 -3,3c-1.65685,0 -3,-1.34315 -3,-3z"/>
     <path stroke="null" id="svg_9" d="m34,4c0,-1.10457 -0.89543,-2 -2,-2c-1.10457,0 -2,0.89543 -2,2l0,40c0,1.10457 0.89543,2 2,2c1.10457,0 2,-0.89543 2,-2l0,-40z"/>
     <path stroke="null" id="svg_10" d="m19,22c0,8.83656 7.16344,16 16,16c1.10457,0 2,-0.89543 2,-2c0,-1.10457 -0.89543,-2 -2,-2c-6.62742,0 -12,-5.37258 -12,-12c0,-6.62742 5.37258,-12 12,-12c1.10457,0 2,-0.89543 2,-2c0,-1.10457 -0.89543,-2 -2,-2c-8.83656,0 -16,7.16344 -16,16z"/>
    </g>
   </g>
  </g>
 </g>
</svg>